<svg id="グループ化_268" data-name="グループ化 268" xmlns="http://www.w3.org/2000/svg" viewBox="0 0 118.313 90.914">
  <defs>
    <style>
      .cls-1 {
        fill: #fff;
      }
    </style>
  </defs>
  <path id="パス_966" data-name="パス 966" d="M.7,51.374l.287.287.671-.192.766-.1.671-.1.671-.192.671-.192.766-.1h.671l.766-.192.671-.192.671-.1.766-.192h.671l.671-.192.766-.1.671-.1.766-.192.671-.192.671-.1.766-.1.671-.1.671-.192.766-.1.671-.192.671-.192h.766l.671-.192.671-.1.671-.192h.766l.671-.1.671-.287.766-.192h.671l.766-.192.671-.192h.671l.766-.1.671-.192.671-.1.766-.1.671-.1.671-.192.766-.192h.671l.671-.287.766-.1.671-.1.766-.192.671-.1.671-.1.766-.192.671-.1.766-.1.671-.1.671-.287.671-.1.766-.192.671-.1.766-.1.671-.1.671-.1.766-.1.671-.287.671-.1.766-.1.671-.1.671-.192.766-.1.671-.192h.671l.766-.192.671-.192.671-.1.766-.1.671-.1.766-.192.671-.1.671-.192.766-.1.671-.1.671-.287.766-.1h.671l.671-.192.766-.1.671-.1.766-.1.671-.287.671-.1H64.4l.671-.192.766-.1.671-.287.671-.1h.766l.671-.192.671-.192.766-.1.671-.1.671-.192.766-.192h.671l.671-.192.766-.1.671-.1.671-.192.766-.1.671-.192.766-.192.671-.1h.766L79.922,37l.671-.192.671-.1.766-.192H82.7l.766-.192.671-.1.671-.192h.766l.671-.287h.671l.766-.192.671-.192.671-.1h.766l.671-.192.766-.192.671-.1.671-.1.766-.192.671-.1.671-.192.766-.1.671-.1.766-.192.671-.192h.766l.671-.1.671-.192.766-.1.671-.1.766-.192.671-.192.671-.192.766-.1.671-.1.671-.192.766-.1.671-.1.766-.192.671-.1.671-.192.766-.1.671-.192h.766l.671-.192.766-.1.671-.192.671-.1.766-.1.671-.1.766-.1.671-.287.287-.287v-2.2l.1-.766v-2.3l-.1-.671V22.347l-.287-.479h-.671l-.671-.1-.766-.1-.671-.192-.671-.192-.766-.1-.671-.192-.671-.192h-.766l-.671-.1-.766-.192-.671-.192-.671-.1-.766-.192-.671-.1H105.5l-.766-.192-.671-.1-.671-.1-.766-.192-.671-.192-.671-.1-.766-.192-.671-.1h-.766l-.671-.192-.671-.1-.671-.192-.766-.1-.671-.1-.671-.192-.766-.1-.671-.1-.671-.287h-.766l-.671-.287h-.671l-.766-.1-.671-.192-.671-.192-.766-.1-.671-.1-.671-.1-.766-.1L85.1,16.12l-.766-.1-.671-.192-.671-.1-.766-.1-.671-.192-.671-.192h-.766l-.671-.1-.766-.192-.671-.192-.671-.1-.766-.1-.671-.1-.671-.287h-.766l-.671-.192-.671-.192-.766-.1h-.671l-.671-.287-.766-.192-.671.1-.671-.287h-.766l-.671-.287-.766-.1-.671-.1-.671-.1-.766-.1-.671-.192L63.253,12h-.766l-.671-.1-.766-.192-.671-.192-.671-.1-.766-.192h-.671l-.766-.192-.671-.192-.671-.192H55.4l-.671-.1-.671-.192-.671-.192-.766-.1-.671-.1L51.182,9.8l-.671-.1-.671-.192-.766-.1-.671-.1-.766-.1-.671-.192-.671-.1-.766-.1-.671-.192-.671-.192h-.766l-.671-.1-.671-.192-.766-.287-.671.1-.671-.287-.766-.1h-.671l-.671-.287-.766-.1-.671-.1-.766-.192h-.671l-.671-.287-.766-.192-.671-.1h-.671l-.766-.192-.671-.192-.671-.1-.766-.1-.671-.1L27.9,5.486l-.671-.192h-.671L25.8,5.1l-.671-.1-.671-.192-.766-.1-.671-.192-.766-.1H21.58l-.671-.287-.766-.192-.671.1-.766-.287-.671-.1-.766-.1-.671-.1-.671-.192-.766-.1-.671-.192-.766-.1-.671-.1-.671-.1-.766-.192-.671-.1-.671-.287H9.509l-.671-.1-.766-.192L7.4,1.75l-.766-.192-.671-.192H5.294l-.766-.192-.671-.1L3.091.887,2.42.792,1.654.7.983.6.7.792l-.1.671v.766L.7,2.9V5.773l-.1.671V7.21l.1.671-.1.671v.766l.1.671v2.874l-.1.671.1.766-.1.671.1.766v.671l-.1.671v2.874l.1.671v.766l-.1.671v.766l.1.671-.1.766.1.671V25.6l-.1.766.1.671v.766l-.1.671.1.766v2.108l-.1.671.1.766v1.437L.6,34.9l.1.766-.1.671v2.874l.1.671v2.2l-.1.671.1.766V49.17l-.1.766v.671Z" transform="translate(-0.025 -0.025)"/>
  <path id="パス_967" data-name="パス 967" d="M.958,52.211a.576.576,0,0,1-.383-.1l-.287-.383A.726.726,0,0,1,.1,51.349L0,49.912l.1-.766v-.671l.1-3.64L.1,42.727V39.853L0,39.278v-.1l.1-.671V35.733L0,34.967l.1-1.533v-.671L0,32.093V32l.1-.671V29.889L0,28.453v-.1l.1-.671v-.671L0,26.441v-.192l.1-.671v-.671L0,24.237v-.1l.1-.671L0,22.8v-.766l.1-.766L0,19.256l.1-2.2v-.766L0,15.041v-.1l.1-.671V13.6l.1-.766-.1-.671.1-.766L0,8.622v-.1l.1-.575L0,7.185V6.323l.1-.671V.671A.527.527,0,0,1,.383.192L.671,0h.383L1.82.1l.671.1.766.1h.1l.671.192.671.1.671.192h.766l1.341.383h.862l.671.192.575.287h.862l.671.192.575.1.766.192L13.8,2.3h.766l.671.192.671.1,1.437.383h.671l.766.1h.1l.575.192h.766l.671.192.766.383,1.437.192,1.437.287.766.287,1.341.192H27.3l.766.192.671.192,2.778.383.766.192,1.437.192.766.192h.1l.575.192h.671l2.012.383h.1l.575.287,1.341.1h.192l.575.192h.862l.766.383,1.341.287h.671l.766.1.766.192.671.1,1.437.383.671.1.671.1,1.533.287h.862l.575.192,1.341.1h.1l.671.192,1.341.192h.671l.766.1h.1l.671.287.575.1H59.2l.671.192.671.1h.1l.671.287,1.245.192h.766l.671.1.671.287,2.778.383h.1l.575.192h.862l.575.192h.671l.671.1.671.287,1.341.192,1.437.383H75.2l.575.192,2.108.287.766.192,1.341.192h.766l.671.192,2.108.287.766.192,1.341.287h.671l2.2.383,1.437.383,1.341.1.766.192.575.1h.1l.671.192.575.1,2.108.479h.766l2.108.479,1.341.1.766.192.671.1,1.437.383,2.108.383h.671l2.2.383,1.437.383,1.341.192.766.192.671.192.671.1h.1l1.341.383,1.341.192h.671a.527.527,0,0,1,.479.287l.287.479c0,.1.1.192.1.287l.1,3.736-.1,3.736a.576.576,0,0,1-.1.383l-.287.287c-.1.1-.192.1-.192.192l-.671.287h-.1l-2.874.383-.671.192h-.1l-.766.1-.575.192-.766.1-1.437.287-.575.192h-.766l-.575.192h-.958l-.575.192-1.437.287-.766.1-2.012.575-2.874.479h-.766l-1.341.287-1.437.192-.575.192h-.1l-.671.1-.671.192-1.533.192-1.341.383H89l-2.108.479-.671.1-.671.192h-.1l-.671.1-2.012.479-1.437.192-1.341.287-.671.192h-.958l-4.119.862h-.766l-.575.192h-.1l-.671.1-2.012.479h-.766l-.575.192h-.1l-2.108.287-.671.192h-.1l-1.437.287h-.766l-.671.1-.575.192h-.1l-.671.1-1.437.192-.671.192-1.437.192-.575,1.15h-.1l-.671.1-.766.1-2.012.479-2.2.287-1.341.383h-.766l-.671.192h-.766l-.671.192-.766.192-.766.1-.671.1-.479.192h-.1l-4.215.671-.671.192-.671.192-.766.192-1.533.192-.575.192-1.533.287-.575.192-1.437.192-.575.192h-.862l-1.341.383-2.2.287-1.341.287h-.766l-1.341.383h-.862L22.9,48l-.671.287h-.1l-.671.1-.671.1-.671.192-.766.1-.575.192h-.862l-.671.1-.671.287h-.1l-1.341.192-.671.192-1.437.192-2.108.479-.671.1-.671.1H8.718l-.575.192H7.377l-.671.383-.766.192L4.5,51.54l-1.341.383-.766.1-.766.1-.671.192c.1-.1,0-.1,0-.1M1.15,39.182l.1.671v2.97l.1,2.108-.1,3.64v.671l-.1.766.1,1.054.287-.1h.1l.766-.1.575-.1,1.341-.383.766-.1.766-.1.575-.1.671-.287h.766l.575-.192h.862l.575-.192h.1l.671-.1,2.778-.575.766-.1,1.341-.287.671-.1.575-.192h.1l.671-.1H18.3l.575-.192.766-.1.671-.192h.1l1.341-.1.575-.287h.1l.671-.1h.766l1.341-.383h.862l1.341-.287,2.2-.287,1.341-.383h.766l.575-.192h.1l1.437-.192.575-.192,1.437-.287.671-.192,1.533-.192.671-.1.671-.192,1.437-.287.671-.1.766-.1,2.012-.287.671-.192.766-.192.766-.1.671-.192.671-.192h.766l.671-.192h.1l.671-.1,1.341-.383,2.2-.287,2.012-.479h.862L57,41l.671-.192h.1l1.629-.575.575-.192.766-.1.766-.1.575-.1.671-.287.766-.192h.862l1.245-.192.671-.192h.1l2.108-.287.671-.287h.862l2.012-.479.766-.1.671-.192h.862l4.215-.862h.766L79.9,36.5l.766-.192,1.437-.192.766-.1,2.012-.479.766-.1.671-.192h.1l.766-.1,2.012-.479h.766L91.3,34.3,92.83,34.1l.575-.192h.766l.671-.192,1.533-.192,1.341-.287h.862l3.449-.671,1.341-.383.766-.1.575-.192,1.437-.287.766-.1.671-.192h.862l.671-.192,1.437-.287.766-.1.575-.192.766-.1.671-.192.766-.192,2.108-.287.575-.192.1-2.778.1-.766-.192-3.545H116.4l-1.533-.287-1.437-.383-.671-.1h-.1l-.671-.192-.671-.1-1.341-.192-3.545-.766h-.671L105,20.31l-1.341-.192-1.437-.383-.671-.1-.766-.192-1.341-.1-2.108-.479h-.671L93.788,18.3l-.766-.192-.671-.1-.766-.192-1.341-.1-1.82-.479-2.108-.383-.671-.1-1.437-.287-.766-.192L81.43,16l-.671-.192-.671-.1-1.533-.192-.766-.192-2.012-.287h-.1l-.575-.192h-.862L72.9,14.37l-1.341-.1h-.192l-.671-.287-.575-.1h-.862l-.575-.192h-.862l-.575-.192-2.778-.383h-.1l-.671-.287-.575-.1h-.766l-1.437-.287-.671-.287-.671-.1-.671-.192H58.15l-.671-.192-.671-.287-.671-.1h-.671l-1.437-.287h-.1l-.575-.192-1.533-.287h-.192l-.575-.192-.671-.1-1.437-.287-.671-.1-.766-.1-3.449-.766H43.4l-1.533-.287-.671-.287h-.862l-.575-.192-1.341-.1h-.192l-.575-.287-2.108-.383h-.862l-.671-.287-.671-.1L32,6.9h-.1l-.671-.192-2.778-.383-.671-.383-.671-.1h-.671L25,5.652l-.766-.287-2.012-.287-.671-.1h-.192l-.671-.287L20.118,4.5h-.862l-.671-.192-.671-.1h-.671l-1.533-.383-.671-.1h-.1l-.575-.287H13.7l-1.437-.192-2.108-.479H9.484l-.766-.192L7.951,2.3H7.185L5.844,1.916H5.077l-.671-.192-.671-.1h-.1L2.97,1.341l-.671-.1-1.15-.1V4.215l.1.671v.862l-.1.766v.671l.1.575v.192l-.1.671.1,2.778-.1.766.1.671v.1l-.1.671v.671l-.1.671.1.671v.766l-.1,2.874.1,2.108v.1l-.1.671.1,1.341v.1l-.1.671.1.671v.766l-.1.671.1.671v.766l-.1.766.1,1.341v1.437l-.1.766.1.671v.766l-.1,1.437.1.671v3.545Z" transform="translate(0 0)"/>
  <path id="パス_968" data-name="パス 968" d="M117.092,40.392l-.383-.192h-.671l-.671.192-.766.1-.671.287-.671.1-.766.192-.671.1-.671.1-.766.1-.671.192-.766.1-.671.192h-.671l-.766.192-.671.192-.671.1-.766.1-.671.192h-.671l-.766.192-.671.192h-.766l-.671.192-.671.192-.671.1-.766.1-.671.192-.671.192H96.3l-.671.192-.671.1-.766.192-.671.1-.671.192-.766.1-.671.1-.766.1-.671.192H89.31l-.671.287-.766.1H87.2l-.671.192-.766.192-.671.192h-.766l-.671.192-.671.192h-.766l-.671.287h-.766L80.114,47l-.671.1-.766.1-.671.192-.671.1-.671.192-.766.1-.671.192-.766.1-.671.1-.671.1-.766.1-.671.192-.671.1-.766.1-.671.192-.766.1-.671.192-.671.1-.766.1-.671.192-.671.192-.766.1-.671.1-.671.192-.766.192-.671.1-.671.1-.766.1-.671.192-.766.1h-.671l-.671.192-.766.192-.671.192h-.671l-.766.192h-.671l-.766.192-.671.192-.671.1-.766.192-.671.192h-.766l-.671.192-.671.1-.766.1-.671.192-.671.192H45.53l-.671.1-.671.1-.766.192-.671.1-.671.287h-.766l-.671.192-.671.192-.766.192h-.671l-.671.192-.766.1-.671.1-.766.192-.671.1-.671.1-.766.192-.671.1-.671.1-.766.1-.671.287-.671.1-.766.1-.671.1-.766.1-.671.192-.671.192H25.8l-.671.192-.766.1-.671.192-.671.1-.766.192-.671.1-.766.192-.671.1-.671.1-.766.1-.671.192-.671.192-.766.1h-.671l-.766.192-.671.192-.671.192-.766.1-.671.192h-.766l-.671.192H10.18l-.671.287-.671.1H8.072L7.4,60.51l-.766.1-.671.1-.671.192-.766.192-.671.1-.766.1-.671.192H1.654l-.671.192L.7,62.042v1.437l-.1.766v.766l.1.766-.1.671.1.766v.766l-.1.766.1.766.287.287.671.1.671.287.766.1h.671l.766.1.671.287.671.1.766.192h.671l.671.287h.766l.671.192h.766l.671.287.671.1.766.1.671.192.671.192.671.1.766.1h.671l.766.192.671.1.671.192.766.192h.671l.671.192.766.1.671.192.671.1.766.192.671.1.671.1.766.1.671.192.671.192.766.1h.671l.671.287.766.192h.671l.671.192.766.1h.671l.671.287.766.1.671.192.671.1.766.1.671.1.766.192h.671l.671.287.766.1.671.1.766.1.671.192.671.1.766.192.671.1.671.192.671.1h.766l.671.192.766.192.671.1.671.192.766.1.671.1.671.192h.766l.671.287h.766l.671.192.671.192h.766l.671.192.671.1.766.1.671.287h.766l.671.192.671.1.766.192.671.1.671.1.766.1.671.287.671.1.766.1.671.192h.766l.671.287h.671l.766.1.671.192.671.192.766.1.671.192h.766l.671.192.671.1.671.192.766.192h.671l.671.192.766.192h.671l.766.287h.671l.671.192.766.1.671.1.671.192.766.1.671.192.671.192h.766l.671.192.766.1.671.192.671.1.766.1.671.1.766.192.671.1.671.192.766.1.671.192.671.1.766.1.671.1.671.192.766.1.671.192.766.1.671.1.766.1.671.287h.671l.766.192.671.1.766.1.671.1.671.287.766.1.671.1.671.192h.766l.671.192.766.192h.671l.766.192.671.1.671.192.766.1.671.1.766.287h.671l.671.287h.766l.671.192.766.192h.671l.383-.192v-2.2L117,88.2l.1-.671-.1-.766.1-.671-.1-.766V83.98l.1-.766v-.671l-.1-.766v-.671l.1-.766V79l-.1-.766v-.671l.1-.766V71.91l-.1-.766.1-.671v-2.2L117,67.6l.1-.671v-.766l-.1-.671V64.054l.1-.766v-.671l-.1-.671.1-.766-.1-.671.1-.766-.1-.671.1-.766V56.869L117,56.2l.1-.766V52.654l-.1-.766v-.671l.1-.766-.1-.671.1-.766-.1-.671.1-.766v-.671l-.1-.671v-.766l.1-.671-.1-.766v-.671l.1-.766v-2.2Z" transform="translate(-0.025 -1.689)"/>
  <path id="パス_969" data-name="パス 969" d="M116.684,91.853h0l-.766-.1-.766-.192-.671-.192-.671-.1h-.1l-.575-.192h-.766l-.671-.192-.671-.1-.766-.192-.671-.1-1.437-.287h-.766l-1.341-.383h-.766l-1.437-.287-.671-.1h-.1l-.671-.287-.671-.1h-.671l-.766-.1-.671-.192H98.77L98.1,88.5l-.575-.1-1.437-.1-.862-.383-.671-.1-1.437-.383-1.341-.192-.671-.192-.671-.1h-.1l-.671-.192-2.108-.383H86.89l-.766-.1-.671-.287h-.862l-.575-.192H83.25l-.671-.192-.671-.192h-.862l-.671-.192-.575-.192-1.437-.287-.671-.1h-.1l-.575-.192h-.671l-.766-.1-.766-.287h-.766l-1.437-.383-.575-.1-.671-.192h-.862l-.575-.287h-.671l-.766-.1-.766-.192-1.341-.1h-.1l-.575-.192h-.766l-1.341-.287-.671-.1h-.1l-.671-.192L60.833,81.7h-.766l-2.012-.479h-.862l-.671-.192-1.341-.192-.766-.575h-.862l-.671-.192-.575-.1H51.54l-.575-.192h-.671l-4.982-.958h-.766l-.671-.1-.766-.575-.671-.1-2.2-.383L38.8,77.483l-.671-.1h-.1l-.575-.287-.671-.1-1.437-.192-.671-.1-1.437-.287-.671-.1h-.1l-.575-.192h-.671l-.766-.1-.766-.287-.671-.1-.766-.1h-.1l-.575-.192H26.92l-.766-.1L24.046,74.7h-.671l-2.2-.383-.766-.192-.671-.1-.575-.287h-.766l-.671-.192-1.341-.192-.671-.192h-.766l-.671-.192-1.437-.192-.766-.192-.671-.1h-.766l-.575-.192-.671-.1-.766-.383H7.76l-.575-.192H6.419l-.671-.287-.671-.1-.766-.192-.671-.1H2.97L2.3,70.681H2.2l-.575-.192-.671-.1c-.192,0-.287-.1-.383-.287l-.287-.383c0-.1-.1-.1-.1-.192L0,68.861v-.192L.1,68,0,66.562v-2.3L.1,63.5v-.671l.1-.766a.352.352,0,0,1,.1-.287l.287-.383c.1-.1.192-.192.287-.192l.671-.192h.862l2.778-.479.575-.383h.1l1.437-.192.575-.192h.862l.671-.192.671-.192h.862l.671-.192h.766l3.449-.766h.862l2.778-.575.766-.1,1.341-.287.671-.1.671-.192h.1L25.77,56.6h.766l.671-.192.671-.192.766-.192h.766l.671-.1.671-.1.671-.192h.192l.766-.1,1.341-.287.671-.192,1.533-.192.671-.192,1.437-.192.575-.192h.958l.671-.1,1.341-.383h.766l.575-.192.766-.1.671-.192,1.437-.287h.766l1.341-.383,1.437-.192.671-.192h.766l.671-.192.671-.192h.862l.575-.192.766-.192h.766l.671-.192,1.437-.192.575-.192.766-.192H59.4l1.245-.287H61.5l.575-.1,1.437-.287.671-.192h.1l.766-.1.671-.1.671-.192,2.874-.575.766-.1.575-.192h.1l1.437-.192.575-.192,4.311-.671L77.6,47.4h.1l.671-.1.575-.192h.1l.671-.1h.671l.575-.192h.862l.575-.192h.862l.671-.1.575-.192h.862l.575-.192.766-.192.671-.192h.862l.671-.1.575-.192h.1l.671-.1.575-.192,1.533-.192,1.341-.287.766-.1.671-.192.766-.1.671-.192h.862l2.012-.479.766-.1.671-.192.766-.192h.766l1.341-.287h.766l3.449-.766h.766l.575-.192h.1l.671-.1.575-.192h.958l1.341-.192.671-.192.766-.1.671-.192,1.437-.287.766-.1a.576.576,0,0,1,.383.1l.383.287a.35.35,0,0,1,.192.479l-.1.766.1,1.341v.1l-.1.671.1,1.341v.192l-.1.671v.575l.1.671v.1l-.1,1.437.1.671v.766l.1.671v.192l-.1.671v.575l.1.671v2.2l-.1,1.437.1,2.108-.1.671.1.671v.192l-.1.671.1.671v.192l-.1.671.1.671v.766l-.1,1.437.1,1.341V68l-.1.671v1.437l.1.671v.862l-.1.575.1.575v.192l-.1.671v.671l.1.671v1.437l-.1.766V79.3l.1.575v.766l-.1,1.437v.671l.1,1.341v.1l-.1,1.341.1,1.341v.1l-.1.671.1.671v.1l-.1.671.1,2.108v.766a.5.5,0,0,1-.192.383l-.287.287c-.862-.766-.958-.766-1.15-.766M114,90.32l.671.1h.1l.671.192,1.054.192v-.383l-.1-2.108v-.1l.1-.671-.1-.671v-.1l.1-.671-.1-1.341.1-1.437-.1-1.341V80.548l.1-.766v-.671l-.1-.671v-2.2l.1-.766-.1-2.778.1-.671-.1-.671V71.16l.1-.671v-.671l-.1-.671V67.616l.1-.671v-.671l-.1-1.341v-.766l.1-.766V62.73l-.1-.671v-.1l.1-.671-.1-.671v-.192l.1-.671-.1-.671v-.1l.1-.671-.1-2.108.1-1.533V52.575l-.1-.671v-.862l.1-.671-.1-.671v-.766l-.1-.671v-.1l.1-1.341-.1-.671v-.862l.1-.671-.1-1.341v-.192l.1-.671-.1-1.341V40.6h-.479l-.575.192-.766.1-.575.192h-.1l-.671.1-.575.192-.766.192-.766.1h-.671l-.575.192h-.1l-.671.1-.575.192h-.862l-1.341.287-2.108.383h-.862l-1.245.287h-.862l-.575.1-.671.192h-.1l-.671.1-2.012.479h-.766l-.575.192-3.545.671-1.533.192-.575.192-.766.575-.671.192-.766.192h-.766l-.575.192-.766.192-.671.192H84.3l-.575.192-.766.192H82.2l-.575.192h-.862l-.575.192h-.958l-.383.192-.671.192h-.1l-.671.1-.671.192-2.2.287-.671.192-1.437.192-.575.287-1.437.192-.671.192-2.874.479-.766.1-.671.192-.766.192-.671.1-.671.192-2.108.383H60.45l-.671.192-.671.192h-.766l-.671.192L57,51.9l-.766.1-.766.1-.575.192h-.862l-.671.1-.575.192h-.862l-.575.192-.766.192h-.766l-1.437.287-.671.192-1.341.383H45.5l-2.682.575-.671.192H41.29l-1.341.383-.671.192h-.766l-.575.192-3.64.575-1.341.383-.766.1-.671.1-.575.192h-.1l-.671.1-.671.1H28.74l-.671.1-.575.192-.766.192h-.766l-2.778.479-.671.192h-.1l-1.437.192-.671.1-1.437.192-1.437.671-.766.1H15.9l-2.012.479-1.437.383h-.766l-.671.192h-.766l-.575.192-.766.192H8.143l-.575.192L6.131,61.1l-.671.192-2.874.575H1.82l-.479.192-.1.1-.1.575V63.4l-.1.766v.671l.1.671v.766l.1,1.437v.1l-.1.958.1.575H1.82l.671.192.671.192h.671l.766.1.766.192.671.1.671.192h.862l.479.383h.766l.671.192.671.1h.1l.575.192.671.1.766.192.766.192,2.012.383h.766l.671.192.671.1.766.1.671.192h.766l.671.192.671.1,2.108.479.671.1h.766l1.437.287.671.192.575.1h.862l.671.192.671.1.671.1h.1l.671.192.671.1h.862l.671.192,1.341.192.766.192,1.341.192,1.437.192h.1l.671.287,1.341.192.671.1,2.874.575h.1l.671.575.575.1h.766l1.341.383,1.437.192.766.192.671.1.766.192h.766l.575.192H52.5l.671.192.671.192H54.7l.671.192,1.341.192.671.192h.766l2.012.479h.671l1.437.287h.1l.575.192.671.1,1.533.479h.862l.671.192,1.437.192.766.192.671.1.671.1h.1l.575.192h.766l.671.192.671.1,1.341.383H75.2l.671.192.671.1h.862l.671.192.671.1,1.437.287.671.1.671.192h.862l.671.192.575.1H84.5l.575.192h.766l.671.192.671.1.671.1,2.2.383.671.192.671.1h.1l.671.192,1.341.192,1.533.383.671.1.766.192,1.341.1.766.192.671.287h.862l.671.192.671.1h.671l.766.192.671.287.671.1,1.437.287h.766l1.341.383h.671l2.2.383.766.192.671.1.671.192h.862Z" transform="translate(0 -1.705)"/>
  <path id="パス_970" data-name="パス 970" class="cls-1" d="M14.376,45.99h-.671a3.594,3.594,0,0,1-.958-.1H12.46c-.192,0-.479-.1-.671-.1l-.192-.1a6.1,6.1,0,0,1-.671-.192l-.575-.287c-.1-.1-.192-.1-.287-.192a.352.352,0,0,0-.287-.1L9.2,44.648c-.287-.192-.479-.383-.766-.575-.192-.192-.287-.383-.383-.479a1.024,1.024,0,0,0-.287-.479c-.1-.1-.1-.192-.192-.192a1.682,1.682,0,0,1-.383-.479l-.1-.1c-.192-.192-.287-.479-.479-.671L6.329,41.1c0-.1-.1-.192-.1-.287-.1-.383-.192-.671-.287-.958,0-.1-.1-.192-.192-.287L5.466,39a1.215,1.215,0,0,1-.1-.575v-.287c0-.1-.1-.192-.1-.383-.1-.192-.1-.383-.192-.575v-.862a.576.576,0,0,0-.1-.383V20.89c0-.192-.1-.383-.1-.575v-7.76a.352.352,0,0,0-.1-.287c0-.192-.1-.383-.1-.575a1.215,1.215,0,0,1,.1-.575V9.49a1.18,1.18,0,0,0,.192-.671V7c.1-.1,0-.192,0-.287,0-.192-.1-.287-.1-.479V5.275A.618.618,0,0,1,5.466,4.7a.618.618,0,0,1,.575.575v.862s0,.192.1.192c0,.192.1.383.1.671v3.545a.718.718,0,0,1-.1.479v.383a.352.352,0,0,0,.1.287c0,.192.1.383.1.575v8.143c0,.192.1.383.1.575v11.3a1.215,1.215,0,0,1-.1.575v2.012a.724.724,0,0,0,.1.383c0,.192.1.287.1.479V36.6c0,.1.1.287.1.383,0,.192.1.287.1.479s.1.287.1.479a.576.576,0,0,0,.1.383c0,.1.1.192.192.383s.192.287.192.479a6.6,6.6,0,0,0,.287.766c.1.1.1.192.1.383.1.192.1.287.192.479s.287.383.383.575l.1.1a1.322,1.322,0,0,1,.287.383l.287.287a1.323,1.323,0,0,1,.287.383c.1.1.192.287.287.287a1.718,1.718,0,0,0,.671.479.726.726,0,0,0,.383.192c.1.1.192.1.383.192.1.1.192.1.383.192a.726.726,0,0,0,.383.192c.192.1.383.1.575.192l.192.1a4.149,4.149,0,0,1,.479.1h.287c.287,0,.575.1.766.1h1.054a.864.864,0,0,0,.479-.1c.1,0,.192-.1.287-.192a.5.5,0,0,1,.383-.192c.1,0,.192-.1.287-.1.192-.1.287-.1.383-.192a2.54,2.54,0,0,0,.575-.479,2.09,2.09,0,0,0,.383-.479l.1-.192c.1-.1.1-.192.192-.287s.192-.287.287-.383.1-.192.192-.383a.726.726,0,0,1,.192-.383c.1-.1.1-.192.192-.383.1-.1.1-.287.192-.383,0-.1.1-.287.1-.383s.1-.287.1-.383a.5.5,0,0,1,.192-.383c.1-.1.1-.192.1-.383s.1-.287.1-.479a.576.576,0,0,1,.1-.383c0-.1.1-.287.1-.383s.1-.287.1-.383c0-.287.1-.575.1-.766V31.332a.864.864,0,0,1,.1-.479V26.638c0-.192-.1-.383-.1-.575a.718.718,0,0,1,.1-.479V17.441a1.215,1.215,0,0,1,.1-.575V16.2c0-.192-.1-.383-.1-.575V7.766a.575.575,0,0,1,1.15,0V10.64c0,.192.1.383.1.575v4.6c0,.192.1.383.1.575a1.215,1.215,0,0,1-.1.575v8.143a1.215,1.215,0,0,1-.1.575v.671a4.149,4.149,0,0,0,.1.479v3.545a1.215,1.215,0,0,1-.1.575v4.886c0,.192.1.383,0,.575,0,.287-.1.575-.1.862,0,.192-.1.383-.1.575,0,.1-.1.192-.1.383v.287c0,.192-.1.383-.1.575a1.362,1.362,0,0,1-.192.575c0,.1-.1.192-.1.287s-.1.192-.1.287a1.362,1.362,0,0,1-.192.575l-.287.575c-.1.1-.1.192-.192.287,0,.1-.1.192-.1.287-.1.192-.1.383-.192.575s-.287.383-.383.575l-.192.192-.1.192c-.192.192-.287.383-.479.575a2.009,2.009,0,0,1-.766.575.828.828,0,0,1-.575.287.334.334,0,0,0-.192.1.334.334,0,0,0-.192.1,1.43,1.43,0,0,1-.671.287,1.63,1.63,0,0,1-.671.1h-.287c-.671.479-.671.479-.766.479" transform="translate(-0.197 -0.197)"/>
  <path id="パス_971" data-name="パス 971" class="cls-1" d="M25.469,44.34a.618.618,0,0,1-.575-.575c0-.287,0-.479.1-.575V38.879a3.387,3.387,0,0,1-.1-.575v-2.3a1.037,1.037,0,0,1,.1-.575v-4.5a3.388,3.388,0,0,1-.1-.575,1.037,1.037,0,0,1,.1-.575V16.462a3.387,3.387,0,0,1-.1-.575v-.862a3.388,3.388,0,0,1,.1-.575V10.139l-.1-.192a1.018,1.018,0,0,1-.1-.766,1.037,1.037,0,0,1,.479-.383.787.787,0,0,1,.671.1.874.874,0,0,1,.287.766v.287l.287.766c.1.192.1.287.192.383,0,.1.1.192.192.383l.287.766c.1.192.1.287.192.383,0,.1.1.192.192.383a1.282,1.282,0,0,1,.1.479c0,.1,0,.1.1.287s.1.287.192.383c0,.1.1.192.192.383s.1.287.192.287c.1.1.1.192.192.383s.1.287.192.383c0,.1.1.192.192.383s.1.287.192.479a.352.352,0,0,0,.1.287.352.352,0,0,1,.1.287c.1.1.1.192.192.479s.1.383.192.479c0,.1,0,.1.1.287s.1.287.192.287c.1.1.1.192.192.383s.1.287.192.479c0,.1.1.192.1.287.1.1.1.192.192.287s.1.192.192.479c.1.192.1.287.192.383,0,.1.1.192.192.383.1.287.1.383.192.479a.352.352,0,0,0,.1.287c0,.1.1.1.1.192a1.024,1.024,0,0,1,.287.479,1.424,1.424,0,0,1,.1.575c0,.1,0,.1.1.287s.1.287.192.383c0,.1.1.192.192.383l.287.766c.1.192.1.287.192.383,0,.1.1.192.1.383.1.192.1.287.192.383,0,.1.1.192.192.383a.352.352,0,0,1,.1.287,1.024,1.024,0,0,1,.287.479c.1.192.1.383.192.479a.352.352,0,0,0,.1.287c.1.192.1.287.192.287.1.1.1.192.192.383s.1.287.192.287c.1.1.1.192.192.383s.1.383.192.479a.352.352,0,0,0,.1.287.352.352,0,0,1,.1.287,1.024,1.024,0,0,1,.287.479c.1.192.1.383.192.479a.352.352,0,0,0,.1.287c.1.192.1.287.192.287.1.1.1.192.192.383s.1.287.192.287c.1.1.1.192.192.383a1.424,1.424,0,0,1,.1.575c0,.1,0,.1.1.287s.1.287.192.383c0,.1.1.192.192.383a.352.352,0,0,1,.1.287c.1.1.1.192.192.479.1.192.1.287.192.479a.352.352,0,0,0,.1.287c.1.192.1.287.192.383,0,.1.1.192.1.383-.575-.383-.575-.287-.575-.1a.352.352,0,0,0,.1.287.352.352,0,0,1,.1.287c.1.1.1.192.192.479a.724.724,0,0,1,.1.383V36.293a4.149,4.149,0,0,1-.1-.479v-1.82a4.149,4.149,0,0,1-.1-.479v-13.6a3.388,3.388,0,0,1-.1-.575V14.929a3.387,3.387,0,0,1-.1-.575V11.96a.575.575,0,0,1,1.15,0v2.682a3.388,3.388,0,0,1,.1.575c0,.287,0,.383-.1.479v3.832a3.388,3.388,0,0,1,.1.575V33.8a4.149,4.149,0,0,1,.1.479V36.1a4.149,4.149,0,0,1,.1.479V40.6l.1.192a1.018,1.018,0,0,1,.1.766.965.965,0,0,1-.575.383.81.81,0,0,1-.575-.192.794.794,0,0,1-.287-.766V40.8c-.1-.192-.1-.287-.192-.479,0-.1-.1-.192-.1-.287a.748.748,0,0,0,0-.479c-.1-.1-.1-.192-.192-.383l-.192-.383c0-.1-.1-.192-.192-.383a.737.737,0,0,0-.192-.287c-.1-.1-.1-.192-.192-.479-.1-.192-.1-.287-.192-.479a.352.352,0,0,0-.1-.287c-.1-.192-.1-.287-.192-.383,0-.1-.1-.192-.1-.383-.1-.192-.1-.287-.192-.479a.352.352,0,0,0-.1-.287.352.352,0,0,1-.1-.287c-.1-.1-.1-.192-.192-.479-.1-.192-.1-.287-.192-.383,0-.1-.1-.192-.192-.383a1.424,1.424,0,0,1-.1-.575c0-.1,0-.1-.1-.287s-.1-.287-.192-.287c-.1-.1-.1-.192-.192-.383s-.1-.287-.192-.287c-.1-.1-.1-.192-.192-.383s-.1-.383-.192-.479a.352.352,0,0,0-.1-.287.3.3,0,0,1-.1-.192,1.024,1.024,0,0,1-.287-.479c-.1-.192-.1-.383-.192-.479a.352.352,0,0,0-.1-.287.736.736,0,0,0-.192-.287c-.1-.1-.1-.192-.192-.383s-.1-.287-.192-.383c0-.1-.1-.192-.192-.383s-.1-.383-.192-.479a.352.352,0,0,0-.1-.287.352.352,0,0,1-.1-.287,1.024,1.024,0,0,1-.287-.479c-.1-.192-.1-.287-.192-.383l.287-.287c-.1-.192-.1-.287-.192-.383,0-.1-.1-.192-.1-.383l-.287-.766c-.1-.192-.1-.287-.192-.383,0-.1-.1-.192-.192-.383a1.424,1.424,0,0,1-.1-.575c0-.1,0-.1-.1-.287,0-.1-.1-.1-.1-.192a1.024,1.024,0,0,1-.287-.479c-.1-.287-.1-.383-.192-.479,0-.1,0-.1-.1-.287s-.1-.287-.192-.383c0-.1-.1-.192-.192-.383s-.1-.192-.1-.287c-.1-.1-.1-.192-.192-.479-.1-.192-.1-.287-.192-.479a.352.352,0,0,0-.1-.287.737.737,0,0,0-.192-.287c-.1-.1-.1-.192-.192-.383-.1-.287-.1-.383-.192-.479,0-.1,0-.1-.1-.287s-.1-.192-.1-.287c-.1-.1-.1-.192-.192-.479-.1-.192-.1-.287-.192-.479a.352.352,0,0,0-.1-.287c-.1-.192-.1-.287-.192-.383,0-.1-.1-.192-.192-.383s-.1-.287-.192-.287c-.1-.1-.1-.192-.192-.383s-.1-.287-.192-.383c0-.1-.1-.192-.192-.383a1.282,1.282,0,0,1-.1-.479c0-.1,0-.1-.1-.287s-.1-.287-.192-.383c0-.1-.1-.192-.192-.383l.1-.287v2.108a3.388,3.388,0,0,1-.1.575v1.341a3.388,3.388,0,0,1,.1.575V29.3a1.037,1.037,0,0,1-.1.575v.575a3.387,3.387,0,0,1,.1.575v3.928c0,.287,0,.479-.1.575V38.3a3.388,3.388,0,0,1,.1.575v3.832c0,.287,0,.479-.1.575v.287c0,.479-.192.766-.479.766" transform="translate(-1.04 -0.368)"/>
  <path id="パス_972" data-name="パス 972" class="cls-1" d="M59.166,38.736a.618.618,0,0,1-.575-.575V15.839c0-.1,0-.1-.1-.192a.73.73,0,0,1,0-.766.965.965,0,0,1,.575-.383.726.726,0,0,1,.671.1.713.713,0,0,1,.287.671v.192c.1.192.1.287.192.383,0,.1.1.192.192.383s.1.383.192.479a.352.352,0,0,0,.1.287c.1.192.1.287.192.383s.1.192.192.383.1.287.192.479c0,.1.1.192.1.383a.737.737,0,0,0,.192.287c.1.1.1.192.192.479l.287.766c.1.192.1.287.192.479,0,.1.1.192.1.383.1.192.1.287.192.287.1.1.1.192.192.479.1.192.1.287.192.383,0,.1.1.192.192.383l.287.766c.1.192.1.287.192.383,0,.1.1.192.1.383.1.192.1.287.192.383,0,.1.1.192.192.383s.1.287.192.479c0,.1.1.192.1.383a.736.736,0,0,0,.192.287,1.024,1.024,0,0,1,.287.479c.1.287.1.383.192.479a.352.352,0,0,0,.1.287.736.736,0,0,0,.192.287c.1.1.1.192.192.479.1.192.1.383.192.479a.724.724,0,0,0,.1.383c.1.192.1.287.192.383,0,.1.1.192.192.383l.671,1.533c.1.192.1.287.192.383s.1.192.192.383.1.287.192.383c0,.1.1.192.192.383s.1.287.192.479c0,.1,0,.1.1.192v-.862a4.149,4.149,0,0,1-.1-.479V18.809a3.388,3.388,0,0,1-.1-.575V16.606a.575.575,0,1,1,1.15,0v1.916a3.387,3.387,0,0,1,.1.575v13.22a4.149,4.149,0,0,1,.1.479v2.395c0,.1,0,.192.1.192a.73.73,0,0,1,0,.766.965.965,0,0,1-.575.383.717.717,0,0,1-.671-.192.874.874,0,0,1-.287-.766v-.192c-.1-.192-.1-.287-.192-.383s-.1-.192-.192-.383-.1-.287-.192-.287c-.1-.1-.1-.192-.192-.479-.1-.192-.1-.287-.192-.479,0-.1-.1-.192-.1-.383-.1-.192-.1-.287-.192-.383,0-.1-.1-.192-.192-.383s-.1-.287-.192-.383-.1-.192-.192-.383l-1.054-1.15c-.1-.192-.1-.287-.192-.383,0-.1-.1-.192-.192-.383s-.1-.383-.192-.479a.724.724,0,0,0-.1-.383.737.737,0,0,0-.192-.287c-.1-.1-.1-.192-.192-.479s-.1-.383-.192-.479a.352.352,0,0,0-.1-.287.737.737,0,0,0-.192-.287c-.1-.1-.1-.192-.287-.479-.1-.192-.1-.287-.192-.479,0-.1-.1-.192-.1-.383-.1-.192-.1-.287-.192-.383,0-.1-.1-.192-.192-.383s-.1-.287-.192-.383c0-.1-.1-.192-.1-.383l-.1-.671c-.1-.192-.1-.287-.192-.383,0-.1-.1-.192-.192-.383s-.1-.287-.192-.287c-.1-.1-.1-.192-.192-.479-.1-.192-.1-.287-.192-.479,0-.1-.1-.192-.1-.383l-.287-.766a.737.737,0,0,0-.192-.287c-.1-.1-.1-.192-.192-.479-.1-.192-.1-.287-.192-.383,0-.1-.1-.192-.1-.383-.1-.192-.1-.287-.192-.383,0-.1-.1-.1-.1-.192V38.448c.1,0-.1.287-.383.287" transform="translate(-2.452 -0.607)"/>
  <path id="パス_973" data-name="パス 973" class="cls-1" d="M94.866,32.5a.618.618,0,0,1-.575-.575V22.439c0-.1,0-.192-.1-.192a.73.73,0,0,1,0-.766.965.965,0,0,1,.575-.383.726.726,0,0,1,.671.1.874.874,0,0,1,.287.766v.287c.1.192.1.287.192.383s.1.192.192.383.1.287.192.383c0,.1.1.192.1.383l.287.766c.1.192.1.287.192.479,0,.1.1.192.1.383a.736.736,0,0,0,.192.287c.1.1.1.192.192.479.1.192.1.287.192.479,0,.1.1.192.1.383.1.192.1.287.192.287.1.1.1.192.192.383l.192.383V22.535a.575.575,0,1,1,1.15,0V30.2s0,.192.1.192a.73.73,0,0,1,0,.766.819.819,0,0,1-.575.287c-.287,0-.766-.1-.766-.862v-.192c-.1-.192-.1-.287-.192-.383,0-.1-.1-.192-.192-.383s-.1-.383-.192-.479a.352.352,0,0,0-.1-.287l-.575-.575c-.1-.192-.1-.287-.192-.287-.1-.1-.1-.192-.192-.383s-.1-.287-.192-.479c0-.1-.1-.192-.1-.383a.736.736,0,0,0-.192-.287c-.1-.1-.1-.192-.192-.479-.1-.192-.1-.287-.192-.479,0-.1-.1-.192-.1-.383l-.1-.287v7.377a1,1,0,0,1-.575.287" transform="translate(-3.952 -0.885)"/>
  <path id="パス_974" data-name="パス 974" class="cls-1" d="M44.171,41.132a.618.618,0,0,1-.575-.575V15.649a4.149,4.149,0,0,1-.1-.479V12.775a.575.575,0,1,1,1.15,0v2.682a4.149,4.149,0,0,1,.1.479V40.653a.536.536,0,0,1-.575.479" transform="translate(-1.827 -0.512)"/>
  <path id="パス_975" data-name="パス 975" class="cls-1" d="M44.177,28.068a.352.352,0,0,1-.287-.1.507.507,0,0,1-.1-.766q.144-.287.287-.287c.1-.1.1-.192.192-.287a1.322,1.322,0,0,1,.287-.383.737.737,0,0,0,.192-.287q.144-.287.287-.287c.1-.1.1-.192.192-.287q.144-.287.287-.287c.1-.1.1-.192.192-.287l.479-.671c.1-.192.192-.192.192-.287.1-.1.1-.192.287-.383.1-.192.192-.192.192-.287.1-.1.1-.192.287-.383q.144-.287.287-.287a.737.737,0,0,0,.192-.287l.479-.671c.1-.1.1-.192.192-.287s.1-.192.287-.383c.1-.192.192-.192.192-.287a.736.736,0,0,0,.192-.287q.144-.287.287-.287a.737.737,0,0,0,.192-.287c.1-.1.192-.192.192-.287.1-.1.1-.192.287-.383.1-.1.192-.192.192-.287.1-.1.1-.192.287-.383s.192-.287.287-.383a.737.737,0,0,0,.192-.287l.479-.671q.144-.287.287-.287a.737.737,0,0,0,.192-.287.3.3,0,0,0,.1-.192c.1-.1.1-.192.287-.479l.383-.383.192-.192c.1-.1.1-.192.192-.287s.1-.192.287-.383l.479-.671a.546.546,0,1,1,.862.671l-.479.671c-.1.1-.1.192-.192.287s-.1.192-.287.383l-.383.383-.192.192a.3.3,0,0,0-.1.192c-.1.1-.1.192-.287.479q-.144.287-.287.287a.737.737,0,0,0-.192.287l-.479.575a1.322,1.322,0,0,1-.287.383.736.736,0,0,0-.192.287c-.1.1-.192.192-.192.287-.1.1-.1.192-.287.383-.1.1-.192.192-.192.287-.1.1-.1.192-.287.383q-.144.287-.287.287a.737.737,0,0,0-.192.287,1.323,1.323,0,0,1-.287.383.736.736,0,0,0-.192.287c-.1.1-.1.192-.192.287s-.1.192-.287.383l-.479.671q-.144.287-.287.287a.737.737,0,0,0-.192.287c-.1.192-.1.192-.1.287-.1.1-.1.192-.287.383-.1.192-.192.192-.192.287-.1.1-.1.192-.287.383l-.479.671q-.144.287-.287.287c-.1.1-.1.192-.192.287q-.144.287-.287.287c-.1.1-.1.192-.192.287q-.144.287-.287.287a.737.737,0,0,0-.192.287q-.144.287-.287.287c-.1.1-.1.192-.192.287a.521.521,0,0,1-.479.287" transform="translate(-1.834 -0.574)"/>
  <path id="パス_976" data-name="パス 976" class="cls-1" d="M55.105,39.436a.527.527,0,0,1-.479-.287c-.1-.1-.1-.192-.192-.192a1.322,1.322,0,0,1-.287-.383l-.383-.671c-.1-.192-.192-.287-.192-.479,0-.1-.1-.1-.1-.287-.1-.192-.192-.287-.192-.383s-.1-.192-.192-.287a.736.736,0,0,0-.192-.287c-.1-.1-.1-.192-.287-.383-.1-.1-.1-.192-.192-.287a1.322,1.322,0,0,1-.287-.383c-.1-.192-.192-.287-.192-.479,0-.1-.1-.1-.1-.287a.737.737,0,0,0-.192-.287c-.1-.1-.1-.192-.287-.383-.1-.192-.192-.287-.192-.383s-.1-.192-.192-.287-.1-.192-.192-.192a1.323,1.323,0,0,1-.287-.383,1.619,1.619,0,0,1-.192-.479c0-.1,0-.1-.1-.287-.1-.1-.1-.192-.192-.192a1.322,1.322,0,0,1-.287-.383l-.383-.671c-.1-.192-.192-.287-.192-.383s-.1-.192-.192-.287c-.1-.192-.192-.287-.192-.383s-.1-.192-.192-.287-.1-.192-.192-.287a1.323,1.323,0,0,1-.287-.383c-.1-.192-.192-.287-.192-.383s-.1-.1-.1-.287c-.1-.192-.192-.287-.192-.383s-.1-.192-.192-.287c-.1-.192-.192-.287-.192-.383s-.1-.192-.192-.287-.1-.192-.192-.192a1.322,1.322,0,0,1-.287-.383c-.1-.192-.192-.287-.192-.383s-.1-.192-.192-.287a.559.559,0,1,1,.958-.575c.1.192.192.287.192.383s.1.192.192.287.1.192.192.192a1.322,1.322,0,0,1,.287.383c.1.192.192.287.192.383s.1.192.192.287c.1.192.192.287.192.383s.1.192.192.287c.1.192.192.287.192.383s.1.1.1.287c.1.1.1.192.192.287a1.322,1.322,0,0,1,.287.383c.1.192.192.287.192.383s.1.192.192.287c.1.192.192.287.192.383s.1.192.192.287l.383.671c.1.1.1.192.192.192a1.323,1.323,0,0,1,.287.383,1.619,1.619,0,0,1,.192.479c0,.1,0,.1.1.287.1.1.1.192.192.192a1.322,1.322,0,0,1,.287.383c.1.192.192.287.192.383s.1.192.192.287a.736.736,0,0,0,.192.287c.1.1.1.192.287.383.1.192.192.287.192.479,0,.1.1.1.1.287.1.1.1.192.192.287a1.322,1.322,0,0,1,.287.383.737.737,0,0,0,.192.287c.1.1.1.192.192.383s.192.287.192.383.1.192.192.287c.1.192.192.287.192.479,0,.1.1.1.1.287l.383.671c.1.1.1.192.192.192a1.322,1.322,0,0,1,.287.383.518.518,0,0,1-.192.766c0,.1-.1.1-.192.1" transform="translate(-1.936 -1.021)"/>
  <path id="パス_977" data-name="パス 977" class="cls-1" d="M75.257,35.623a1.215,1.215,0,0,1-.575-.1,5.688,5.688,0,0,1-.766-.383,1.775,1.775,0,0,1-.766-.671,3.36,3.36,0,0,1-.479-.766c0-.1-.1-.1-.1-.192-.1-.192-.287-.383-.287-.575a2.288,2.288,0,0,1-.192-.862V29.4a3.387,3.387,0,0,1-.1-.575v-6.9a2.652,2.652,0,0,1,.1-.862,1.385,1.385,0,0,1,.192-.671l.1-.287a3.476,3.476,0,0,1,.287-.671c.192-.192.287-.383.479-.479l.1-.1c.192-.192.479-.383.671-.575l.1-.1a6.6,6.6,0,0,1,.766-.287h.862c.287,0,.575.1.862.1.287.1.575.1.862.192s.479.287.766.383l.1.1a5.313,5.313,0,0,0,.766.575,5.316,5.316,0,0,1,.575.766,1.776,1.776,0,0,1,.192.671v.192c0,.1.1.192.1.287a1.384,1.384,0,0,1,.192.671v3.449a4.149,4.149,0,0,1,.1.479c0,.287,0,.383-.1.479v1.341a4.149,4.149,0,0,1,.1.479v3.257a1.776,1.776,0,0,1-.192.671c0,.1-.1.192-.1.287v.192c-.1.192-.1.479-.192.766a3.883,3.883,0,0,1-.479.862,2.238,2.238,0,0,1-.671.671,2.868,2.868,0,0,1-.766.383h-.1a3.044,3.044,0,0,1-.862.287,2.652,2.652,0,0,1-.862.1Zm-.1-16.573H74.97a1.619,1.619,0,0,0-.479.192l-.1.1c-.1.1-.287.192-.383.287l-.287.192-.287.287c-.1.1-.1.192-.192.383v.383c-.1.192-.1.287-.192.479,0,.192-.1.479-.1.671v7.089a3.387,3.387,0,0,1,.1.575v2.2a1.385,1.385,0,0,0,.192.671c0,.1.1.192.192.287s.1.192.192.287a2,2,0,0,0,.383.575,2.09,2.09,0,0,0,.479.383l.1.1c.192.1.287.192.479.287h.671a1.421,1.421,0,0,0,.671-.1,1.035,1.035,0,0,0,.671-.287l.1-.1a2.094,2.094,0,0,0,.479-.287c.192-.192.383-.287.479-.479a2,2,0,0,0,.383-.575c.1-.192.1-.287.192-.479l.1-.192c0-.1.1-.192.1-.383a.724.724,0,0,0,.1-.383V27.863a4.149,4.149,0,0,1-.1-.479v-.766c0-.287,0-.383.1-.479v-.575a4.15,4.15,0,0,1-.1-.479V22.019c0-.1-.1-.192-.1-.287a.576.576,0,0,1-.1-.383.352.352,0,0,0-.1-.287c0-.192-.1-.287-.1-.383a2,2,0,0,0-.383-.575.956.956,0,0,0-.479-.383l-.1-.1c-.192-.1-.287-.192-.479-.287s-.479-.1-.671-.192c-.287,0-.479-.1-.671-.1Z" transform="translate(-3.024 -0.752)"/>
  <path id="パス_978" data-name="パス 978" class="cls-1" d="M84.87,34.132h0a.876.876,0,0,1-.671-.287,1.135,1.135,0,0,1-.1-.766v-.192l-.1-.766c0-.192,0-.287-.1-.383a.724.724,0,0,0-.1-.383c0-.192,0-.287-.1-.383v-.383c0-.192,0-.287-.1-.287a1.949,1.949,0,0,1-.1-.479v-.766l-.287-1.533c0-.192,0-.287-.1-.383a1.949,1.949,0,0,1-.1-.479c0-.192,0-.287-.1-.383a.724.724,0,0,0-.1-.383v-.766l-.1-.766c0-.192,0-.287-.1-.383a1.282,1.282,0,0,0-.1-.479c0-.192,0-.287-.1-.287a1.949,1.949,0,0,1-.1-.479c0-.192,0-.287-.1-.383v-.383c0-.192,0-.287-.1-.383a.724.724,0,0,0-.1-.383v-.862c0-.192,0-.287-.1-.383a.724.724,0,0,0-.1-.383.583.583,0,0,1,1.15-.192c0,.192,0,.287.1.383a.724.724,0,0,0,.1.383v.862c0,.192,0,.287.1.383a.724.724,0,0,0,.1.383c0,.192,0,.287.1.383v.383c0,.192,0,.287.1.287a1.949,1.949,0,0,1,.1.479c0,.192,0,.287.1.383a.724.724,0,0,0,.1.383l.1.766v.766c0,.192,0,.287.1.383a.724.724,0,0,0,.1.383c0,.192,0,.287.1.383a1.949,1.949,0,0,1,.1.479l.287,1.533v.766c0,.192,0,.287.1.287,0,.1.1.192.1.383,0-.192.1-.287.1-.383s.1-.192.1-.287v-.287a1.282,1.282,0,0,1,.1-.479c0-.192.1-.287.1-.383a.724.724,0,0,1,.1-.383l.192-.766a1.282,1.282,0,0,0,.1-.479c0-.1.1-.1.1-.287s0-.287.1-.287a1.282,1.282,0,0,1,.1-.479l.1-.383a.724.724,0,0,1,.1-.383v-.287a1.282,1.282,0,0,1,.1-.479c.1-.287.1-.383.192-.479,0-.1.1-.1.1-.287s.1-.287.1-.383a.724.724,0,0,1,.1-.383c0-.192,0-.287.1-.287a1.282,1.282,0,0,1,.1-.479l.192-.766v-.192c0-.192-.1-.479.1-.671a.579.579,0,0,1,.575-.287,1.385,1.385,0,0,1,.671.192.769.769,0,0,1,.1.766V21.1c0,.192.1.287.1.383s.1.192.1.383l.192.766a.724.724,0,0,1,.1.383.352.352,0,0,0,.1.287c0,.192.1.192.1.287s.1.192.192.479a.864.864,0,0,1,.1.479.352.352,0,0,0,.1.287l.192.766c0,.1.1.192.1.287.1.1.1.192.192.479a.724.724,0,0,1,.1.383.724.724,0,0,0,.1.383.42.42,0,0,0,.1.287c0,.1.1.192.1.383a1.042,1.042,0,0,1,.1.479.352.352,0,0,0,.1.287l.192.575V27.522l.1-.766a.718.718,0,0,1,.1-.479V25.031l.1-.766V23.5a.718.718,0,0,1,.1-.479V21.008a.529.529,0,1,1,1.054.1v1.629a.718.718,0,0,1-.1.479v2.778a.718.718,0,0,1-.1.479v.383l-.1.766v1.724c0,.287,0,.383-.1.479a.352.352,0,0,1-.1.287v.766a1.949,1.949,0,0,1-.1.479.352.352,0,0,1-.1.287.3.3,0,0,0,.1.192.73.73,0,0,1,0,.766.965.965,0,0,1-.575.383.717.717,0,0,1-.671-.192.845.845,0,0,1-.192-.766v-.192c0-.192-.1-.192-.1-.287s-.1-.192-.192-.479a.864.864,0,0,1-.1-.479.352.352,0,0,0-.1-.287.42.42,0,0,0-.1-.287c0-.1-.1-.192-.1-.383l-.1-.383c0-.1-.1-.192-.1-.383a1.042,1.042,0,0,1-.1-.479.352.352,0,0,0-.1-.287.42.42,0,0,0-.1-.287c0-.1-.1-.192-.1-.383a.724.724,0,0,1-.1-.383.724.724,0,0,0-.1-.383c0-.1-.1-.192-.1-.287-.1-.1-.1-.192-.192-.479l-.192-.766a.864.864,0,0,1-.1-.479.352.352,0,0,0-.1-.287c0-.192-.1-.192-.1-.287-.1-.1-.1-.192-.192-.479a.724.724,0,0,1-.1-.383v-.192c0,.1-.1.192-.1.287a.724.724,0,0,1-.1.383c-.1.287-.1.383-.192.479,0,.1-.1.1-.1.287s0,.287-.1.287a1.282,1.282,0,0,1-.1.479c0,.192-.1.287-.1.383l-.1.383v.287a1.282,1.282,0,0,1-.1.479,1.042,1.042,0,0,0-.1.479c0,.1-.1.1-.1.287l-.192.766c0,.192-.1.287-.1.383a.724.724,0,0,1-.1.383v.287a1.282,1.282,0,0,1-.1.479,1.042,1.042,0,0,0-.1.479c0,.1-.1.192-.1.287,0,.192-.1.287-.1.383a.724.724,0,0,1-.1.383v.766a1.282,1.282,0,0,0-.1.479c0,.1-.1.1-.1.287v.192a1.135,1.135,0,0,1-.1.766.683.683,0,0,1-.575.287" transform="translate(-3.44 -0.794)"/>
  <path id="パス_979" data-name="パス 979" class="cls-1" d="M83.471,81.652a.618.618,0,0,1-.575-.575V76.191a4.149,4.149,0,0,1-.1-.479v-2.3c0-.287,0-.479.1-.575V68.431a4.149,4.149,0,0,1-.1-.479V67.09a3.387,3.387,0,0,1,.1-.575V63.162a1.037,1.037,0,0,1,.1-.575v-.479a3.388,3.388,0,0,1-.1-.575c0-.287,0-.383.1-.479V60c0-.287,0-.383.1-.479V56.648a3.387,3.387,0,0,1-.1-.575v-4.6a.575.575,0,0,1,1.15,0v4.886a3.387,3.387,0,0,1,.1.575v2.3c0,.287,0,.383-.1.479v1.054c0,.287,0,.383-.1.479v.479a3.388,3.388,0,0,1,.1.575,1.037,1.037,0,0,1-.1.575v3.353a3.388,3.388,0,0,1-.1.575v1.341a4.148,4.148,0,0,1,.1.479v3.928c0,.287,0,.479-.1.575V75.9a4.15,4.15,0,0,1,.1.479v4.6c0,.383-.192.671-.575.671" transform="translate(-3.478 -2.138)"/>
  <path id="パス_980" data-name="パス 980" class="cls-1" d="M83.473,67.92a.724.724,0,0,1-.383-.1.507.507,0,0,1-.1-.766l.383-.383.192-.192c.1-.1.1-.192.192-.287s.1-.192.287-.479c.1-.192.192-.192.192-.287.1-.1.1-.192.287-.383l1.437-1.916a1.323,1.323,0,0,1,.287-.383.736.736,0,0,0,.192-.287c.1-.1.192-.192.192-.287.1-.1.1-.192.287-.383.1-.192.192-.192.192-.287.1-.1.1-.192.287-.287l.383-.383.192-.192q.144-.287.287-.287c.1-.1.1-.192.192-.287l.479-.671q.144-.287.287-.287c.1-.1.1-.192.192-.287l.479-.671q.144-.287.287-.287a.736.736,0,0,0,.192-.287q.144-.287.287-.287c.1-.1.1-.192.192-.287q.144-.287.287-.287a.736.736,0,0,0,.192-.287c.1-.1.192-.192.192-.287.1-.1.1-.192.287-.383.1-.1.1-.192.192-.287s.1-.192.287-.383q.144-.287.287-.287a.737.737,0,0,0,.192-.287,1.322,1.322,0,0,1,.287-.383.737.737,0,0,0,.192-.287c.1-.192.192-.192.192-.287.1-.1.1-.192.287-.287.1-.192.192-.192.192-.287.1-.1.1-.192.287-.383a1.322,1.322,0,0,1,.287-.383.737.737,0,0,0,.192-.287c.1-.1.1-.1.1-.192a.875.875,0,0,1,.287-.479l.383-.383.192-.192c.1-.1.1-.1.1-.192a.875.875,0,0,1,.287-.479,1.322,1.322,0,0,1,.287-.383.736.736,0,0,0,.192-.287c.192-.192.287-.287.287-.383l.192-.192c.1-.1.192-.192.192-.287.1-.1.1-.192.287-.383a.546.546,0,0,1,.862.671c-.1.1-.192.192-.192.287-.1.1-.1.192-.287.383s-.192.287-.287.383l-.192.192a1.323,1.323,0,0,1-.287.383.737.737,0,0,0-.192.287c-.1.1-.1.1-.1.192a.875.875,0,0,1-.287.479l-.383.383-.192.192c-.1.1-.1.1-.1.192a.875.875,0,0,1-.287.479,1.322,1.322,0,0,1-.287.383.737.737,0,0,0-.192.287c-.1.192-.192.192-.192.287-.1.1-.1.192-.192.287-.1.192-.192.192-.192.287-.1.1-.1.192-.287.383q-.144.287-.287.287a.736.736,0,0,0-.192.287q-.144.287-.287.287a.736.736,0,0,0-.192.287c-.1.1-.192.192-.192.287-.1.1-.1.192-.287.383-.1.1-.192.192-.192.287-.1.1-.1.192-.287.383q-.144.287-.287.287a.737.737,0,0,0-.192.287q-.144.287-.287.287c-.1.1-.1.192-.192.287-.1.192-.192.192-.287.287s-.1.192-.192.287l-.479.671q-.144.287-.287.287c-.1.1-.1.192-.192.287l-.479.671a1.322,1.322,0,0,1-.287.383.737.737,0,0,0-.192.287l-.383.383-.192.192c-.1.192-.192.192-.192.287-.1.1-.1.192-.287.383-.1.1-.192.192-.192.287-.1.1-.1.192-.287.383a1.322,1.322,0,0,1-.287.383.737.737,0,0,0-.192.287l-1.437,1.916c-.1.1-.192.192-.192.287-.1.1-.1.192-.287.383-.1.1-.1.192-.192.287s-.1.192-.287.479l-.383.383-.192.192a4.149,4.149,0,0,0-.479.1" transform="translate(-3.48 -2.01)"/>
  <path id="パス_981" data-name="パス 981" class="cls-1" d="M97.966,84.8a.527.527,0,0,1-.479-.287.737.737,0,0,0-.192-.287c-.1-.1-.1-.192-.287-.383a.737.737,0,0,0-.192-.287c-.1-.1-.1-.192-.287-.383a.81.81,0,0,1-.192-.575c0-.1,0-.1-.1-.192l-.192-.192a2.621,2.621,0,0,1-.383-.479L94.9,80.39a.81.81,0,0,1-.192-.575c0-.1,0-.1-.1-.192s-.1-.192-.192-.287a1.323,1.323,0,0,1-.287-.383c-.1-.1-.1-.192-.192-.287a1.322,1.322,0,0,1-.287-.383c-.1-.192-.192-.287-.192-.383s-.1-.192-.1-.287c-.1-.1-.1-.192-.192-.192a1.322,1.322,0,0,1-.287-.383l-.383-.671a1.362,1.362,0,0,1-.192-.575c0-.1,0-.1-.1-.192s-.1-.192-.192-.192a1.323,1.323,0,0,1-.287-.383c-.1-.192-.192-.287-.192-.383s-.1-.192-.192-.287-.1-.192-.192-.192a1.322,1.322,0,0,1-.287-.383c-.1-.192-.192-.287-.192-.383s-.1-.192-.192-.287a1.186,1.186,0,0,0-.192-.287c-.1-.1-.1-.192-.192-.383l-.287-.766c-.1-.192-.192-.287-.192-.383s-.1-.192-.192-.287a.737.737,0,0,0-.192-.287c-.1-.1-.1-.192-.192-.383s-.192-.287-.192-.479c0-.1-.1-.1-.1-.287-.1-.1-.1-.192-.192-.192a1.323,1.323,0,0,1-.287-.383,1.619,1.619,0,0,1-.192-.479c0-.1,0-.1-.1-.192l-.192-.192a1.322,1.322,0,0,1-.287-.383c-.1-.192-.192-.287-.192-.383s-.1-.192-.192-.287c-.1-.192-.192-.287-.192-.383s-.1-.192-.192-.287c-.1-.192-.192-.287-.192-.383s-.1-.192-.192-.287a.736.736,0,0,0-.192-.287c-.1-.1-.1-.192-.287-.383a.559.559,0,1,1,.958-.575.736.736,0,0,0,.192.287c.1.1.1.192.287.383.1.192.192.287.192.383s.1.192.192.287c.1.192.192.287.192.383s.1.192.192.287c.1.192.192.287.192.383s.1.192.192.287l.192.192a1.323,1.323,0,0,1,.287.383,1.618,1.618,0,0,1,.192.479c0,.1,0,.1.1.192l.192.192a1.323,1.323,0,0,1,.287.383c.1.192.192.287.192.479,0,.1.1.192.1.287.1.192.192.192.192.287.1.1.1.192.192.383s.192.287.192.383.1.192.192.287l.575.958c.1.1.1.192.192.383s.192.287.192.383.1.192.192.287.1.192.192.192a1.323,1.323,0,0,1,.287.383c.1.192.192.287.192.383s.1.192.192.287.1.192.192.192a1.323,1.323,0,0,1,.287.383,1.361,1.361,0,0,1,.192.575c0,.1,0,.1.1.192l.383.671c.1.1.1.192.192.192a1.323,1.323,0,0,1,.287.383c.1.192.192.287.192.383s.1.192.1.287c.1.1.1.192.192.287a1.322,1.322,0,0,1,.287.383c.1.1.1.192.192.287a1.322,1.322,0,0,1,.287.383.81.81,0,0,1,.192.575c0,.1,0,.1.1.192l.766,1.341.192.192a2.622,2.622,0,0,1,.383.479.81.81,0,0,1,.192.575c0,.1,0,.1.1.192a.737.737,0,0,0,.192.287c.1.1.1.192.287.383a.736.736,0,0,0,.192.287c.1.1.1.192.287.383a.518.518,0,0,1-.192.766c-.192.192-.287.192-.383.192" transform="translate(-3.604 -2.696)"/>
  <path id="パス_982" data-name="パス 982" class="cls-1" d="M59.144,77.342h-.575c-.287,0-.575-.1-.862-.1h-.287a1.215,1.215,0,0,1-.575-.1,1.544,1.544,0,0,1-.671-.383l-.192-.1c-.287-.192-.479-.383-.766-.575a4.167,4.167,0,0,1-.575-.671l-.192-.192c-.1-.192-.287-.287-.383-.575l-.1-.1a6.6,6.6,0,0,1-.287-.766c-.1-.287-.1-.575-.192-.862,0-.192-.1-.479-.1-.766V68.337a4.15,4.15,0,0,1-.1-.479c0-.287,0-.383.1-.479V61.152c0-.192-.1-.383-.1-.575,0-.287.1-.575.1-.862a1.362,1.362,0,0,1,.192-.575.335.335,0,0,1,.1-.192l.287-.862a3.36,3.36,0,0,1,.479-.766c.192-.192.383-.287.479-.479.1,0,.1-.1.192-.1l.192-.1c.192-.1.383-.287.575-.383a7.6,7.6,0,0,1,.862-.383l.192-.1a1.385,1.385,0,0,1,.671-.192c.287,0,.479-.1.766-.1h.192a1.215,1.215,0,0,1,.575.1h.575a1.042,1.042,0,0,1,.479.1,1.56,1.56,0,0,1,.575.287c.1,0,.1.1.192.1.287.192.479.287.766.479.192.192.287.383.383.479,0,.1.1.1.1.192l.1.192c.1.192.287.287.383.575a6.6,6.6,0,0,1,.287.766.334.334,0,0,0,.1.192c.1.192.1.383.192.575v1.724a1.773,1.773,0,0,1,0,1.15v.383a1.037,1.037,0,0,1,.1.575v.766c0,.287,0,.383-.1.479v1.054a1.037,1.037,0,0,1-.1.575v3.545a4.149,4.149,0,0,1,.1.479v2.395a2.8,2.8,0,0,1-.192.862l-.287.862a1.926,1.926,0,0,1-.383.766,2.54,2.54,0,0,1-.479.575l-.1.1c-.192.192-.383.287-.575.479l-.192.1c-.287.192-.479.287-.766.479l-.1.192a6.6,6.6,0,0,1-.766.287h-.287m-.575-20.789h-.1a1.215,1.215,0,0,0-.575.1c-.192,0-.287.1-.479.1l-.192.1c-.192.1-.479.192-.671.287a1.323,1.323,0,0,1-.383.287l-.192.192c-.1.1-.192.192-.287.192-.1.1-.192.1-.287.192a2,2,0,0,0-.383.575c-.1.192-.192.479-.287.671,0,.1-.1.192-.1.287a.576.576,0,0,0-.1.383c0,.192-.1.479-.1.766v.287a4.15,4.15,0,0,1,.1.479V67c0,.287,0,.383-.1.479v.575a4.15,4.15,0,0,1,.1.479v2.4a.864.864,0,0,1-.1.479v.479a1.215,1.215,0,0,0,.1.575,2.255,2.255,0,0,0,.192.766,1.362,1.362,0,0,1,.192.575l.1.1c0,.1.1.192.192.287l.287.287c.192.192.287.383.479.575s.383.287.575.479l.192.1c.192.1.287.192.479.287a.352.352,0,0,1,.287.1.576.576,0,0,1,.383.1,1.87,1.87,0,0,0,.671.1h.671c.192,0,.287-.1.479-.192l.1-.1.575-.287.192-.1c.1-.1.287-.192.383-.287l.192-.192c.1-.1.192-.287.287-.383a4.671,4.671,0,0,0,.287-.671c.1-.192.192-.479.287-.671s.1-.479.192-.671V70.062a4.149,4.149,0,0,1-.1-.479V66.517a1.037,1.037,0,0,1,.1-.575v-.479a4.148,4.148,0,0,1-.1-.479c0-.287,0-.383.1-.479V63.26a1.037,1.037,0,0,1-.1-.575,3.388,3.388,0,0,1,.1-.575v-.383a3.388,3.388,0,0,1-.1-.575v-.766a1.042,1.042,0,0,1,.1-.479v-.287c0-.1-.1-.192-.1-.383,0-.1-.1-.192-.1-.287a6.109,6.109,0,0,1-.192-.671c-.1-.1-.1-.192-.192-.383h-.383c-.1-.1-.1-.192-.192-.192-.1-.1-.1-.192-.192-.287s-.287-.192-.479-.383c-.1-.1-.192-.1-.287-.192s-.192-.192-.287-.192h-.671a.352.352,0,0,1-.287-.1h-.287" transform="translate(-2.239 -2.331)"/>
  <path id="パス_983" data-name="パス 983" class="cls-1" d="M72.819,79.9h-.192c-.192,0-.383-.1-.575-.1-.1,0-.192-.1-.287-.1h-.192a2.437,2.437,0,0,1-.671-.192,6.6,6.6,0,0,1-.766-.287.334.334,0,0,1-.192-.1l-.575-.287c-.192-.1-.287-.287-.479-.479l-.192-.192a4.166,4.166,0,0,1-.575-.671l-.192-.192a2.089,2.089,0,0,1-.383-.479,2.869,2.869,0,0,1-.383-.766c-.1-.192-.1-.383-.192-.575a.352.352,0,0,0-.1-.287c0-.1-.1-.192-.1-.287-.1-.192-.1-.383-.192-.575v-.862c0-.287-.1-.575-.1-.766v-.287a4.15,4.15,0,0,0-.1-.479v-2.97a1.037,1.037,0,0,1,.1-.575V63.33a4.149,4.149,0,0,1-.1-.479,1.037,1.037,0,0,1,.1-.575V60.36a3.388,3.388,0,0,1-.1-.575c0-.192.1-.383.1-.575a.334.334,0,0,1,.1-.192v-.192c0-.192-.1-.383,0-.575a1.362,1.362,0,0,1,.192-.575.334.334,0,0,1,.1-.192,1.362,1.362,0,0,1,.192-.575.334.334,0,0,1,.1-.192c.1-.287.192-.479.287-.766l.1-.192.287-.575a4.056,4.056,0,0,1,.479-.671l.192-.192c.1-.192.287-.287.383-.479l.1-.1a2,2,0,0,1,.575-.383,1.362,1.362,0,0,1,.575-.192.334.334,0,0,0,.192-.1c.1,0,.1-.1.192-.1a1.027,1.027,0,0,1,.575-.192,1.215,1.215,0,0,1,.575-.1h.287a2.381,2.381,0,0,1,.766-.1h.958a1.63,1.63,0,0,1,.671.1,1.776,1.776,0,0,1,.671.192h.1c.1,0,.192,0,.192.1a1.362,1.362,0,0,1,.575.192.956.956,0,0,1,.479.383l.1.1.575.575a1.718,1.718,0,0,1,.479.671,2.4,2.4,0,0,1,.383.671c.1.192.1.383.192.575,0,.1,0,.192.1.192l.1.192c.1.192.1.383.192.575,0,.192.1.383.1.575v.192c0,.1,0,.192.1.192,0,.192.1.383.1.575,0,.287,0,.383-.1.479v3.353c0,.287,0,.383-.1.479v1.341a4.149,4.149,0,0,1,.1.479,3.388,3.388,0,0,1-.1.575v6.323c0,.287,0,.383-.1.479v1.245c0,.192.1.383.1.575s-.1.383-.1.575v.192a.732.732,0,0,1-.192.479.334.334,0,0,1-.1.192.352.352,0,0,1-.1.287c0,.192-.1.383-.1.575a.334.334,0,0,1-.1.192l-.287.575c-.1.192-.287.287-.383.479l-.192.192a4.167,4.167,0,0,1-.575.671c-.192.192-.383.287-.479.383l-.192.1c-.1,0-.1.1-.192.1a1.473,1.473,0,0,1-.575.383,1.215,1.215,0,0,1-.575.1H74.16c-.1,0-.192,0-.192.1a1.215,1.215,0,0,1-.575.1H73.2c0,.287-.192.287-.383.287m.575-26.153h-.575a1.63,1.63,0,0,0-.671.1h-.671c-.1,0-.192.1-.287.1-.1.1-.192.1-.287.192-.1,0-.192.1-.287.1a.726.726,0,0,0-.383.192,1.322,1.322,0,0,0-.383.287l-.287.192-.287.287-.192.192a1.682,1.682,0,0,0-.383.479c-.1.1-.1.287-.192.383l-.1.192a1.385,1.385,0,0,0-.192.671c0,.1-.1.192-.1.287s-.1.287-.1.383-.1.287-.1.383-.1.192-.1.287v.287c0,.1.1.287,0,.479a4.148,4.148,0,0,1-.1.479.334.334,0,0,1-.1.192v.192a3.387,3.387,0,0,1,.1.575V62.18a1.037,1.037,0,0,1-.1.575v.383a4.149,4.149,0,0,1,.1.479v4.6a1.037,1.037,0,0,1-.1.575v3.64a.576.576,0,0,0,.1.383,2.109,2.109,0,0,0,.1.766v.671c0,.1.1.287.1.383s.1.192.1.287.1.287.1.383a.965.965,0,0,0,.1.287l.287.575.287.287c.1.1.192.192.192.287a1.154,1.154,0,0,0,.479.479c.1.1.192.192.192.287l.287.287c.1.1.192.1.287.192.1,0,.192.1.287.1a4.672,4.672,0,0,0,.671.287.864.864,0,0,0,.479.1h.192c.1,0,.287.1.383.1s.192.1.287.1H73.2a.724.724,0,0,0,.383-.1c.1,0,.192-.1.287-.1a.576.576,0,0,0,.383-.1.352.352,0,0,0,.287-.1.206.206,0,0,0,.192-.192c.1-.1.192-.192.287-.192a.3.3,0,0,1,.192-.1A1.378,1.378,0,0,1,75.5,77.6l.479-.479c.1-.1.192-.192.192-.287.1-.1.192-.192.192-.287.1-.1.1-.287.192-.383,0-.1.1-.192.1-.287s.1-.192.1-.287a.576.576,0,0,1,.1-.383.726.726,0,0,1,.192-.383.352.352,0,0,0,.1-.287v-.192c0-.192.1-.287.1-.479V73.58c0-.192-.1-.287-.1-.479v-.766c0-.287,0-.383.1-.479V65.341a3.388,3.388,0,0,1,.1-.575v-.479a4.149,4.149,0,0,1-.1-.479v-.766c0-.287,0-.383.1-.479V59.21c0-.287,0-.383.1-.479v-.287a.352.352,0,0,0-.1-.287c0-.1-.1-.287-.1-.383v-.192a.864.864,0,0,0-.1-.479c0-.192-.1-.287-.1-.479l-.1-.192c0-.1-.1-.192-.1-.287s-.1-.192-.1-.383l-.287-.575a2.09,2.09,0,0,0-.383-.479l-.479-.479-.192-.1a1.322,1.322,0,0,0-.383-.287c-.1,0-.192-.1-.287-.1s-.192-.1-.287-.1h-.1c-.192-.1-.287-.1-.479-.192h-.479v.287h0" transform="translate(-2.789 -2.209)"/>
  <path id="パス_984" data-name="パス 984" class="cls-1" d="M110.518,86.053h-.862a.864.864,0,0,1-.479-.1h-.287c-.287,0-.575-.1-.862-.1-.287-.1-.575-.1-.862-.192l-.862-.287c-.1,0-.192-.1-.287-.1a1.362,1.362,0,0,1-.575-.192,5.689,5.689,0,0,1-.766-.383,5.312,5.312,0,0,1-.766-.575c-.192-.192-.287-.383-.383-.479,0-.1-.1-.1-.1-.192l-.1-.1c-.192-.192-.287-.383-.479-.575l-.1-.192a4.67,4.67,0,0,1-.287-.671,1.63,1.63,0,0,1-.1-.671v-.287a.352.352,0,0,0-.1-.287,1.42,1.42,0,0,1-.1-.671.575.575,0,1,1,1.15,0,.352.352,0,0,0,.1.287c0,.1.1.287.1.383v.766c.1.192.192.287.192.479l.1.192a1.322,1.322,0,0,0,.287.383l.1.192c.1.1.1.192.192.287s.192.192.192.287a2,2,0,0,0,.575.383,4.168,4.168,0,0,0,.671.383c.1,0,.192.1.287.1s.287.1.383.1a1.8,1.8,0,0,0,.766.192c.287.1.479.1.766.192.287,0,.479.1.766.1h.287a.576.576,0,0,1,.383.1h2.97a1.384,1.384,0,0,0,.671-.192c.1,0,.287-.1.383-.1a.352.352,0,0,0,.287-.1c.1,0,.192-.1.287-.192s.192-.192.287-.192c.192-.1.383-.287.575-.383.1-.1.192-.192.192-.287a.335.335,0,0,1,.1-.192c.1-.192.287-.383.287-.575a1.385,1.385,0,0,0,.192-.671c0-.1.1-.287.1-.383s.1-.192.1-.287V75.132c0-.287,0-.383.1-.479v-.479a3.388,3.388,0,0,1-.1-.575v-1.82a4.148,4.148,0,0,1-.1-.479V69.863a6.105,6.105,0,0,0-.192-.671,2,2,0,0,0-.383-.575l-.287-.287c-.1-.1-.192-.1-.192-.192-.1-.1-.1-.192-.192-.192l-.287-.287c-.1,0-.192-.1-.287-.1a.726.726,0,0,1-.383-.192c-.1-.1-.192-.1-.287-.192s-.192-.1-.287-.192a4.15,4.15,0,0,0-.479-.1l-.479-.1c-.192,0-.287-.1-.479-.1h-.766a.576.576,0,0,1-.383-.1c-.1,0-.192-.1-.383-.1h-2.3a2.652,2.652,0,0,1-.862-.1c-.192,0-.383-.1-.575-.1l-.192-.1h-.287a1.215,1.215,0,0,1-.575-.1,2,2,0,0,1-.575-.383c-.1-.1-.1-.1-.192-.1l-.192-.1a2,2,0,0,1-.575-.383,1.8,1.8,0,0,1-.575-.671l-.192-.192a2.089,2.089,0,0,1-.383-.479,1.362,1.362,0,0,1-.192-.575c0-.1,0-.192-.1-.192a.334.334,0,0,0-.1-.192,1.362,1.362,0,0,1-.192-.575l-.1-.192a1.421,1.421,0,0,1-.1-.671V58.079a3.388,3.388,0,0,1,.1-.575V56.259a4.149,4.149,0,0,1-.1-.479v-.766a.864.864,0,0,1,.1-.479v-.479c0-.192-.1-.383,0-.575,0-.192.1-.383.1-.671v-.192c.1-.192.1-.479.192-.671v-.1a2.1,2.1,0,0,1,.287-.479.352.352,0,0,0,.1-.287,2.868,2.868,0,0,1,.383-.766l.1-.192.287-.575.1-.192a.956.956,0,0,1,.383-.479l.192-.192a1.682,1.682,0,0,1,.383-.479.875.875,0,0,1,.479-.287.334.334,0,0,0,.192-.1c.1,0,.1-.1.192-.192.192-.1.287-.287.479-.383s.383-.1.575-.192a.352.352,0,0,0,.287-.1l.192-.1a1.362,1.362,0,0,1,.575-.192c.1,0,.192-.1.287-.1.192-.1.383-.1.575-.192h.862a.352.352,0,0,0,.287-.1,4.15,4.15,0,0,0,.479-.1h.766a1.215,1.215,0,0,1,.575.1h.192c.287,0,.575.1.862.1.287.1.479.1.766.192a3.188,3.188,0,0,1,.575.287c.1,0,.1.1.192.1s.192.1.287.1c.192.1.383.1.575.287.287.192.479.383.671.479.192.192.287.383.383.479,0,.1.1.1.1.192l.1.192c.1.192.287.287.383.575a1.776,1.776,0,0,1,.192.671v.192a2.653,2.653,0,0,1,.1.862.575.575,0,0,1-1.15,0,1.215,1.215,0,0,0-.1-.575.352.352,0,0,0-.1-.287c0-.192-.1-.287-.1-.383-.1-.1-.1-.192-.192-.287l-.192-.192c-.1-.1-.1-.192-.192-.287s-.1-.192-.192-.287a2,2,0,0,0-.575-.383.352.352,0,0,0-.287-.1c-.1,0-.192-.1-.287-.1s-.192-.1-.287-.1c-.1-.1-.192-.1-.383-.192a2.437,2.437,0,0,0-.671-.192c-.192,0-.479-.1-.766-.1h-.287a.864.864,0,0,1-.479-.1h-.671a.352.352,0,0,0-.287.1,4.15,4.15,0,0,1-.479.1h-.766c-.1,0-.287.1-.383.1s-.192.1-.287.1a.5.5,0,0,0-.383.192l-.287.1a.576.576,0,0,1-.383.1c-.1,0-.192.1-.287.1a.5.5,0,0,1-.383.192c-.1.1-.192.1-.287.192s-.192.1-.287.192-.192.1-.287.192-.192.192-.192.287c-.1.1-.1.192-.192.287s-.192.287-.287.383l-.1.192c-.1.192-.192.287-.287.479l-.1.192c-.1.192-.192.479-.287.671-.1.1-.1.287-.192.383s-.1.192-.192.287v.1c-.1.192-.1.383-.192.575V53.1c0,.192-.1.383-.1.575v.766c0,.192,0,.287-.1.383v1.341a4.149,4.149,0,0,1,.1.479v.766a3.388,3.388,0,0,1-.1.575v3.545c0,.192.1.287.1.479l.1.192c0,.1.1.192.1.287.1.1.1.192.192.383a.576.576,0,0,1,.1.383.352.352,0,0,0,.1.287.206.206,0,0,0,.192.192l.287.287c.192.192.287.383.479.479a.5.5,0,0,0,.383.192l.192.1c.1.1.192.192.287.192.1.1.192.192.287.192h.287a.576.576,0,0,1,.383.1c.1,0,.192.1.287.1s.287.1.383.1c.192,0,.479.1.766.1h2.3a4.149,4.149,0,0,1,.479.1.352.352,0,0,1,.287.1h.766c.192,0,.383.1.575.1l.479.1a1.362,1.362,0,0,1,.575.192l.575.287a.335.335,0,0,1,.192.1c.1,0,.192.1.287.1.192.1.383.1.575.287a1.155,1.155,0,0,1,.479.479l.192.192.192.192c.192.1.287.287.479.479.192.287.287.479.479.766l.287.862c.1.192,0,.479,0,.575v.287c0,.287.1.575.1.862v.287a4.149,4.149,0,0,1,.1.479v1.724a3.387,3.387,0,0,1,.1.575c0,.287,0,.383-.1.479v6.227a1.027,1.027,0,0,1-.192.575.334.334,0,0,1-.1.192l-.287.862a2.086,2.086,0,0,1-.479.766c0,.1-.1.1-.1.192a2,2,0,0,1-.383.575c-.192.192-.479.383-.671.575-.1,0-.1.1-.192.1a1.473,1.473,0,0,1-.575.383c-.192.1-.383.1-.575.192a.352.352,0,0,0-.287.1,2.961,2.961,0,0,1-.766.192,1.215,1.215,0,0,0-.575.1h-.479a1.215,1.215,0,0,0-.575.1h-.287c.383-.192.192-.192.1-.192" transform="translate(-4.276 -1.941)"/>
  <path id="パス_985" data-name="パス 985" class="cls-1" d="M38.771,73.945a.618.618,0,0,1-.575-.575V66.185a4.15,4.15,0,0,1-.1-.479V59.575a.575.575,0,0,1,1.15,0v8.718a4.15,4.15,0,0,1,.1.479v4.6a.618.618,0,0,1-.575.575" transform="translate(-1.6 -2.478)"/>
  <path id="パス_986" data-name="パス 986" class="cls-1" d="M43.369,64.71H38.675a.575.575,0,1,1,0-1.15h4.407a2.381,2.381,0,0,0,.766-.1c.1,0,.287-.192.383-.287a.748.748,0,0,0,.383-.383.732.732,0,0,0,.192-.479,1.042,1.042,0,0,0,.1-.479V60.4a4.149,4.149,0,0,1-.1-.479c-.1-.192-.1-.287-.192-.383a1.322,1.322,0,0,0-.383-.287c-.192-.1-.287-.192-.383-.192h-.383l-.671.383c-.192,0-.287,0-.383.1h-.287l-1.245.192a.352.352,0,0,0-.287.1c-.1,0-.192.1-.383.1l-1.341.192c-.287.1-.575-.192-.671-.479s.192-.575.479-.671l1.341-.192a.352.352,0,0,0,.287-.1c.1,0,.192-.1.383-.1l1.341-.192c.192,0,.287,0,.383-.1H42.7l.671-.1a2.652,2.652,0,0,1,.862-.1,1.829,1.829,0,0,1,.766.287,1.8,1.8,0,0,1,.671.575,1.926,1.926,0,0,1,.383.766,1.8,1.8,0,0,1,.192.766v1.437a2.652,2.652,0,0,1-.1.862,1.926,1.926,0,0,1-.383.766,3.25,3.25,0,0,1-.575.575,2.086,2.086,0,0,1-.766.479,4.7,4.7,0,0,1-1.054.1" transform="translate(-1.6 -2.44)"/>
  <path id="パス_987" data-name="パス 987" class="cls-1" d="M46.335,75.583a2.954,2.954,0,0,1-.958-.1c-.192,0-.287-.1-.383-.1a.724.724,0,0,1-.383-.1c-.192,0-.287-.1-.479-.1-.1,0-.192-.1-.287-.1h-.287a1.282,1.282,0,0,1-.479-.1c-.192,0-.287-.1-.479-.1-.1,0-.192-.1-.287-.1-.192,0-.287,0-.383-.1a.724.724,0,0,1-.383-.1h-.766a.563.563,0,0,1-.479-.192c-.1,0-.1-.1-.287-.1l-1.533-.287a.583.583,0,0,1,.192-1.15l1.533.287c.287.1.383.1.479.192.1,0,.1.1.287.1h.766c.192,0,.287,0,.383.1a.724.724,0,0,1,.383.1c.192,0,.287.1.479.1a.352.352,0,0,1,.287.1h.287a1.282,1.282,0,0,1,.479.1c.192,0,.287.1.479.1a.352.352,0,0,1,.287.1c.192,0,.287.1.383.1a.724.724,0,0,1,.383.1c.192,0,.383.1.671.1.192,0,.383-.1.671-.1h.1a1.362,1.362,0,0,0,.575-.192c.192-.1.287-.192.479-.287l.1-.1c.192-.1.287-.287.479-.479a2,2,0,0,0,.383-.575,1.037,1.037,0,0,0,.1-.575v-.1c0-.192.1-.479.1-.671V68.207a2.437,2.437,0,0,0-.192-.671l-.287-.575c-.1-.192-.287-.383-.383-.575A.956.956,0,0,0,47.867,66c-.1-.1-.192-.1-.192-.192l-.287-.287-.575-.287c-.192-.1-.479-.1-.671-.192H44.8c-.287,0-.383,0-.479-.1H38.958a.575.575,0,1,1,0-1.15h5.077c.287,0,.383,0,.479.1H46.43a3.555,3.555,0,0,1,.862.192,5.69,5.69,0,0,1,.766.383,2.09,2.09,0,0,1,.479.383l.192.192c.192.192.479.383.671.575a2.91,2.91,0,0,1,.479.671c.1.287.287.479.383.766a2.8,2.8,0,0,1,.192.862v3.353c0,.287-.1.671-.1.862v.1a2.255,2.255,0,0,1-.192.766,2.086,2.086,0,0,1-.479.766,4.8,4.8,0,0,1-.671.766l-.1.1a1.718,1.718,0,0,1-.671.479,6.6,6.6,0,0,0-.766.287h-.1c-.383.1-.766.1-1.054.192" transform="translate(-1.596 -2.68)"/>
</svg>
